# xmcd CD database file
#
# Track frame offsets:
#	150
#	11305
#	21887
#	33607
#	44127
#	53062
#	58987
#	67820
#	77797
#	86935
#	98730
#	107862
#	115410
#	122520
#
# Disc length: 1729 seconds
#
# Revision: 0
# Processed by: cddbd v1.4PL0 Copyright (c) Steve Scherf et al.
# Submitted via: CDex 1.40Release
#
DISCID=bd06bf0e
DTITLE=Buck Owens - Buck Owens Gold
DYEAR=1900
DGENRE=Country
TTITLE0=Above and beyond
TTITLE1=Exuse me
TTITLE2=Foolin' around
TTITLE3=Undder the influence of love
TTITLE4=Why don't mammy stay with daddy and me
TTITLE5=Blue love
TTITLE6=After dance
TTITLE7=House down the block
TTITLE8=It don't show on me
TTITLE9=Loose talk
TTITLE10=Rhythm and booze
TTITLE11=That ain't right baby
TTITLE12=You're for me
TTITLE13=Down on the corner of love
EXTD=ID3G: 2
EXTT0=
EXTT1=
EXTT2=
EXTT3=
EXTT4=
EXTT5=
EXTT6=
EXTT7=
EXTT8=
EXTT9=
EXTT10=
EXTT11=
EXTT12=
EXTT13=
PLAYORDER=
